<svg width="140" height="47" viewBox="0 0 140 47" fill="none" xmlns="http://www.w3.org/2000/svg">
<g clip-path="url(#clip0_1_373)">
<path d="M27.1763 36.1074L23.2989 27.3289H9.79648L5.83185 36.1136L0 36.1101L16.5171 0.643433L33.0118 36.1101L27.1763 36.1074ZM11.8412 22.7185H21.3348L17.8433 14.9352L17.2169 13.2345L16.5662 11.0676C16.4583 11.502 16.362 11.8756 16.2766 12.1858C16.1912 12.496 16.087 12.8239 15.9628 13.1656C15.7933 13.7695 15.5841 14.3613 15.3363 14.9375L11.8412 22.7185Z" fill="#283D36"/>
<path d="M56.5909 34.7382C56.5909 39.0397 55.7288 42.0762 54.0045 43.8477C52.2803 45.6192 49.3759 46.5044 45.2913 46.5036C42.2472 46.5036 39.8088 45.8629 37.9764 44.5814C37.1195 44.0346 36.4169 43.2775 35.9355 42.3822C35.4541 41.4869 35.21 40.4833 35.2264 39.4669L40.6554 39.4438C40.65 39.8757 40.7676 40.3002 40.9947 40.6676C41.246 41.0569 41.5869 41.3802 41.9889 41.6107C43.0388 42.1643 44.2195 42.4222 45.4046 42.3562C47.557 42.3562 49.1172 41.8801 50.0853 40.9286C51.0535 39.977 51.5367 38.4019 51.5351 36.2031V33.2467C50.7413 34.4461 49.6556 35.4239 48.3799 36.0883C47.1042 36.7527 45.6805 37.0819 44.2426 37.0447C41.1205 37.0447 38.6626 35.972 36.8689 33.8265C35.0752 31.681 34.1781 28.7579 34.1777 25.0574C34.1777 21.5282 35.0905 18.6792 36.9161 16.5102C38.362 14.8871 40.3107 13.796 42.4502 13.4115C44.5896 13.0271 46.7962 13.3716 48.7167 14.3898C49.9848 15.1375 50.9743 16.2784 51.5351 17.6394V14.0286H56.5909V34.7382ZM51.6757 25.0101C51.6757 22.7394 51.1438 20.9624 50.0799 19.6788C49.5345 19.0359 48.848 18.5275 48.0739 18.1935C47.2999 17.8594 46.4592 17.7086 45.6173 17.7527C44.7657 17.7158 43.9171 17.8757 43.1373 18.2198C42.3575 18.5639 41.6674 19.0829 41.1207 19.7368C40.0181 21.0595 39.4669 22.8798 39.4673 25.1973C39.4673 27.5306 39.9952 29.3391 41.051 30.6227C41.6212 31.2422 42.316 31.7341 43.0898 32.0657C43.8636 32.3974 44.6989 32.5613 45.5407 32.547C46.3825 32.5327 47.2117 32.3404 47.9738 31.9826C48.7359 31.6248 49.4136 31.1098 49.9624 30.4713C51.1623 28.9113 51.7695 26.9759 51.6757 25.0101Z" fill="#283D36"/>
<path d="M68.6372 17.5439C69.0481 16.295 69.7886 15.1801 70.7807 14.3171C71.7347 13.5877 72.9127 13.2129 74.1128 13.2569C74.8199 13.2503 75.5249 13.3363 76.2096 13.5131C76.9224 13.6724 77.6116 13.9228 78.2604 14.2583L76.4429 18.5453C76.0139 18.2456 75.5375 18.0203 75.0337 17.8788C74.4851 17.7169 73.916 17.6354 73.344 17.6365C72.6136 17.5897 71.8852 17.7552 71.2466 18.1128C70.608 18.4704 70.0864 19.005 69.7447 19.6523C69.0067 20.996 68.6378 23.2521 68.6378 26.4207V36.1142H63.582V13.9808H68.6378L68.6372 17.5439Z" fill="#283D36"/>
<path d="M80.7051 4.4733C80.7041 4.0603 80.7884 3.65172 80.9528 3.27286C81.1172 2.89399 81.3581 2.55314 81.6605 2.2718C82.2495 1.67629 83.0498 1.33716 83.8874 1.32842C84.7249 1.31968 85.5321 1.64197 86.1334 2.22506C86.4316 2.517 86.6662 2.86733 86.8226 3.25422C86.979 3.64111 87.0538 4.05616 87.0422 4.4733C87.048 4.88968 86.9707 5.30305 86.8146 5.68913C86.6585 6.0752 86.427 6.42617 86.1334 6.72155C85.8477 7.02698 85.5008 7.2689 85.1155 7.43152C84.7301 7.59414 84.3149 7.67389 83.8967 7.66551C83.0543 7.65209 82.2502 7.31141 81.6545 6.71563C81.0588 6.11985 80.7184 5.31568 80.7051 4.4733Z" fill="#283D36"/>
<path d="M105.727 4.47328C105.726 4.06028 105.81 3.6517 105.974 3.27284C106.139 2.89397 106.38 2.55312 106.682 2.27178C107.271 1.67584 108.071 1.33655 108.909 1.32781C109.747 1.31907 110.554 1.64151 111.155 2.22504C111.453 2.51698 111.688 2.86731 111.844 3.2542C112.001 3.64109 112.075 4.05615 112.064 4.47328C112.069 4.88965 111.992 5.30304 111.836 5.68911C111.68 6.07518 111.448 6.42611 111.155 6.72153C110.869 7.02688 110.522 7.26869 110.137 7.4312C109.752 7.59372 109.336 7.67339 108.918 7.6649C108.498 7.66924 108.081 7.58675 107.694 7.42233C107.307 7.25791 106.959 7.01503 106.67 6.7094C106.369 6.41996 106.131 6.07261 105.969 5.68822C105.807 5.30383 105.724 4.89047 105.727 4.47328ZM106.402 14.0257H111.458V36.1123H106.402V14.0257Z" fill="#283D36"/>
<path d="M118.682 36.1123V14.0257H123.434V17.6365C124.304 16.2468 125.52 15.107 126.964 14.3286C128.526 13.5718 130.249 13.2039 131.985 13.2562C133.426 13.217 134.859 13.483 136.19 14.0366C137.305 14.5218 138.251 15.3292 138.904 16.3553C139.297 17.0119 139.58 17.7281 139.743 18.4757C139.84 19.011 139.902 19.5518 139.93 20.0951C139.976 20.8019 139.999 21.6753 139.999 22.7157V36.1123H134.897V24.7649C134.897 21.8762 134.544 19.9502 133.837 18.9869C133.13 18.0236 131.876 17.5425 130.075 17.5433C128.988 17.5238 127.91 17.7421 126.917 18.1835C126.028 18.5795 125.271 19.2224 124.736 20.0356C124.335 20.643 124.072 21.3312 123.967 22.0513C123.78 23.3745 123.702 24.7107 123.734 26.0467V36.1117L118.682 36.1123Z" fill="#283D36"/>
<path d="M86.4366 14.0247V24.4621C84.7348 24.6749 83.007 24.5024 81.3809 23.9575V14.0276L86.4366 14.0247Z" fill="#283D36"/>
<path d="M86.4366 31.5571V36.1143H81.3809V31.4432C83.0513 31.73 84.755 31.7684 86.4366 31.5571Z" fill="#283D36"/>
<path d="M93.8926 29.7002V36.1142H98.9483V27.1203C97.3629 28.1633 95.6675 29.0286 93.8926 29.7002ZM93.8926 0V22.2544C96.3111 21.0027 98.1105 19.4123 98.9011 17.8511C98.9199 17.8559 98.9344 17.856 98.9483 17.8602V0H93.8926Z" fill="#283D36"/>
<path d="M103.071 18.8992C102.748 17.8953 101.834 17.1471 100.501 16.6764C100.579 17.1782 100.525 17.6918 100.343 18.1661C100.03 18.965 99.5554 19.691 98.9499 20.2993C97.4951 21.7531 95.7801 22.9207 93.8941 23.7412C93.0025 24.1535 92.0866 24.5112 91.1515 24.8124C89.6205 25.3158 88.0409 25.657 86.4386 25.8306C84.7501 26.0592 83.0333 25.9591 81.3829 25.5357C80.59 25.338 79.8629 24.9357 79.274 24.3692C79.0004 24.0916 78.7951 23.7541 78.6742 23.3836C78.6548 23.323 78.636 23.2625 78.6215 23.2019C77.3934 24.616 76.8645 26.0342 77.2601 27.2532C77.2976 27.3746 77.3454 27.4926 77.4031 27.6058C77.9793 28.7672 79.4121 29.5293 81.3829 29.8668C83.0572 30.1237 84.7597 30.1399 86.4386 29.9147C88.3218 29.6859 90.1779 29.2727 91.9803 28.6811C92.637 28.4673 93.2798 28.2388 93.8941 27.9916C95.6724 27.2995 97.3681 26.412 98.9499 25.3449C101.378 23.6782 102.935 21.8121 103.168 20.16C103.233 19.7376 103.2 19.306 103.073 18.898" fill="#FFB600"/>
</g>
<defs>
<clipPath id="clip0_1_373">
<rect width="140" height="46.5039" fill="white"/>
</clipPath>
</defs>
</svg>
